<mxfile host="Electron" modified="2024-04-22T08:23:02.195Z" agent="Mozilla/5.0 (Windows NT 10.0; Win64; x64) AppleWebKit/537.36 (KHTML, like Gecko) draw.io/22.1.16 Chrome/120.0.6099.109 Electron/28.1.0 Safari/537.36" etag="7OUDOhuR_S46G6s0a2Is" version="22.1.16" type="device">
  <diagram name="第 1 页" id="m0UVuHAetMMKLSr2sfN5">
    <mxGraphModel dx="836" dy="557" grid="1" gridSize="10" guides="1" tooltips="1" connect="0" arrows="1" fold="1" page="1" pageScale="1" pageWidth="3300" pageHeight="4681" background="none" math="0" shadow="0">
      <root>
        <object label="" 锁="&lt;svg t=&quot;1704634389176&quot; class=&quot;icon&quot; viewBox=&quot;0 0 1024 1024&quot; version=&quot;1.1&quot; xmlns=&quot;http://www.w3.org/2000/svg&quot; p-id=&quot;4264&quot; width=&quot;200&quot; height=&quot;200&quot;&gt;&lt;path d=&quot;M385.150849 385.662338l-128.895105 0 0-150.377622q0-49.102897 19.436563-91.556444t53.706294-74.677323 80.815185-50.637363 101.786214-18.413586q49.102897 0 94.625375 18.413586t80.815185 50.637363 56.263736 74.677323 20.971029 91.556444l0 150.377622-123.78022 0 0-121.734266q0-64.447552-35.804196-99.74026t-97.182817-35.292707q-55.240759 0-88.999001 35.292707t-33.758242 99.74026l0 121.734266zM826.053946 447.040959q27.62038 0 47.568432 19.948052t19.948052 47.568432l0 317.122877q0 27.62038-9.718282 51.66034t-26.597403 41.942058-39.896104 28.131868-50.637363 10.22977l-516.603397 0q-27.62038 0-50.125874-10.22977t-38.361638-27.108891-24.551449-39.384615-8.695305-48.07992l0-324.283716q0-27.62038 19.436563-47.568432t47.056943-19.948052l61.378621 0 128.895105 0 255.744256 0 123.78022 0 61.378621 0z&quot; p-id=&quot;4265&quot; data-spm-anchor-id=&quot;a313x.search_index.0.i2.64f33a81dm5s3x&quot; class=&quot;&quot;&gt;&lt;/path&gt;&lt;/svg&gt;" id="0">
          <mxCell />
        </object>
        <mxCell id="1" parent="0" />
        <mxCell id="44lf9Ctf_OpmYabO1S7V-1" value="" style="rounded=1;whiteSpace=wrap;html=1;fillColor=#d5e8d4;strokeColor=#82b366;" parent="1" vertex="1">
          <mxGeometry x="180" y="190" width="120" height="150" as="geometry" />
        </mxCell>
        <mxCell id="44lf9Ctf_OpmYabO1S7V-36" style="edgeStyle=orthogonalEdgeStyle;rounded=1;orthogonalLoop=1;jettySize=auto;html=1;exitX=0.5;exitY=1;exitDx=0;exitDy=0;" parent="1" source="44lf9Ctf_OpmYabO1S7V-2" edge="1">
          <mxGeometry relative="1" as="geometry">
            <mxPoint x="430" y="530" as="targetPoint" />
          </mxGeometry>
        </mxCell>
        <mxCell id="44lf9Ctf_OpmYabO1S7V-2" value="" style="rounded=1;whiteSpace=wrap;html=1;fillColor=#d5e8d4;strokeColor=#82b366;" parent="1" vertex="1">
          <mxGeometry x="370" y="190" width="120" height="170" as="geometry" />
        </mxCell>
        <mxCell id="44lf9Ctf_OpmYabO1S7V-4" value="&lt;font style=&quot;font-size: 17px;&quot;&gt;德语&lt;/font&gt;" style="text;html=1;strokeColor=none;fillColor=none;align=center;verticalAlign=middle;whiteSpace=wrap;rounded=1;" parent="1" vertex="1">
          <mxGeometry x="310" y="50" width="60" height="30" as="geometry" />
        </mxCell>
        <mxCell id="44lf9Ctf_OpmYabO1S7V-7" value="" style="endArrow=classic;startArrow=classic;html=1;rounded=1;exitX=0.5;exitY=0;exitDx=0;exitDy=0;entryX=0.5;entryY=0;entryDx=0;entryDy=0;" parent="1" source="44lf9Ctf_OpmYabO1S7V-1" target="44lf9Ctf_OpmYabO1S7V-2" edge="1">
          <mxGeometry width="50" height="50" relative="1" as="geometry">
            <mxPoint x="550" y="150" as="sourcePoint" />
            <mxPoint x="600" y="100" as="targetPoint" />
            <Array as="points">
              <mxPoint x="240" y="150" />
              <mxPoint x="430" y="150" />
            </Array>
          </mxGeometry>
        </mxCell>
        <mxCell id="cC_4uylm2qtHgeiYdF5E-3" value="不加prompt" style="edgeLabel;html=1;align=center;verticalAlign=middle;resizable=0;points=[];" parent="44lf9Ctf_OpmYabO1S7V-7" vertex="1" connectable="0">
          <mxGeometry x="0.4504" y="-4" relative="1" as="geometry">
            <mxPoint x="-6" y="-5" as="offset" />
          </mxGeometry>
        </mxCell>
        <mxCell id="44lf9Ctf_OpmYabO1S7V-16" value="" style="edgeStyle=orthogonalEdgeStyle;rounded=1;orthogonalLoop=1;jettySize=auto;html=1;" parent="1" source="44lf9Ctf_OpmYabO1S7V-12" target="44lf9Ctf_OpmYabO1S7V-15" edge="1">
          <mxGeometry relative="1" as="geometry" />
        </mxCell>
        <mxCell id="44lf9Ctf_OpmYabO1S7V-12" value="μ" style="rounded=1;whiteSpace=wrap;html=1;fillColor=#dae8fc;strokeColor=#6c8ebf;" parent="1" vertex="1">
          <mxGeometry x="190" y="349" width="41" height="40" as="geometry" />
        </mxCell>
        <mxCell id="44lf9Ctf_OpmYabO1S7V-17" style="edgeStyle=orthogonalEdgeStyle;rounded=1;orthogonalLoop=1;jettySize=auto;html=1;exitX=0.5;exitY=1;exitDx=0;exitDy=0;entryX=0.5;entryY=0;entryDx=0;entryDy=0;" parent="1" source="44lf9Ctf_OpmYabO1S7V-13" target="44lf9Ctf_OpmYabO1S7V-15" edge="1">
          <mxGeometry relative="1" as="geometry" />
        </mxCell>
        <mxCell id="44lf9Ctf_OpmYabO1S7V-13" value="sigma" style="rounded=1;whiteSpace=wrap;html=1;fillColor=#dae8fc;strokeColor=#6c8ebf;" parent="1" vertex="1">
          <mxGeometry x="247" y="349" width="43" height="40" as="geometry" />
        </mxCell>
        <mxCell id="44lf9Ctf_OpmYabO1S7V-15" value="zi" style="whiteSpace=wrap;html=1;fillColor=#dae8fc;strokeColor=#6c8ebf;rounded=1;" parent="1" vertex="1">
          <mxGeometry x="190" y="426" width="100" height="30" as="geometry" />
        </mxCell>
        <mxCell id="44lf9Ctf_OpmYabO1S7V-18" value="mlp" style="rounded=1;whiteSpace=wrap;html=1;" parent="1" vertex="1">
          <mxGeometry x="387.5" y="260" width="42.5" height="30" as="geometry" />
        </mxCell>
        <mxCell id="44lf9Ctf_OpmYabO1S7V-20" value="zi" style="rounded=1;whiteSpace=wrap;html=1;" parent="1" vertex="1">
          <mxGeometry x="430" y="260" width="42.5" height="30" as="geometry" />
        </mxCell>
        <mxCell id="44lf9Ctf_OpmYabO1S7V-21" value="mlp" style="rounded=1;whiteSpace=wrap;html=1;" parent="1" vertex="1">
          <mxGeometry x="387.5" y="320" width="85" height="30" as="geometry" />
        </mxCell>
        <mxCell id="44lf9Ctf_OpmYabO1S7V-22" value="encoder" style="rounded=1;whiteSpace=wrap;html=1;" parent="1" vertex="1">
          <mxGeometry x="190" y="200" width="100" height="40" as="geometry" />
        </mxCell>
        <mxCell id="44lf9Ctf_OpmYabO1S7V-23" value="encoder" style="rounded=1;whiteSpace=wrap;html=1;" parent="1" vertex="1">
          <mxGeometry x="380" y="200" width="100" height="40" as="geometry" />
        </mxCell>
        <mxCell id="44lf9Ctf_OpmYabO1S7V-40" style="edgeStyle=orthogonalEdgeStyle;rounded=1;orthogonalLoop=1;jettySize=auto;html=1;entryX=0.5;entryY=0;entryDx=0;entryDy=0;" parent="1" target="44lf9Ctf_OpmYabO1S7V-38" edge="1">
          <mxGeometry relative="1" as="geometry">
            <mxPoint x="620" y="90" as="sourcePoint" />
          </mxGeometry>
        </mxCell>
        <mxCell id="44lf9Ctf_OpmYabO1S7V-37" value="&lt;font style=&quot;font-size: 17px;&quot;&gt;英文&lt;/font&gt;" style="text;html=1;strokeColor=none;fillColor=none;align=center;verticalAlign=middle;whiteSpace=wrap;rounded=1;" parent="1" vertex="1">
          <mxGeometry x="590" y="50" width="60" height="30" as="geometry" />
        </mxCell>
        <mxCell id="44lf9Ctf_OpmYabO1S7V-41" style="edgeStyle=orthogonalEdgeStyle;rounded=1;orthogonalLoop=1;jettySize=auto;html=1;" parent="1" source="44lf9Ctf_OpmYabO1S7V-38" edge="1">
          <mxGeometry relative="1" as="geometry">
            <mxPoint x="620" y="530" as="targetPoint" />
          </mxGeometry>
        </mxCell>
        <mxCell id="44lf9Ctf_OpmYabO1S7V-38" value="" style="rounded=1;whiteSpace=wrap;html=1;fillColor=#d5e8d4;strokeColor=#82b366;" parent="1" vertex="1">
          <mxGeometry x="560" y="190" width="120" height="60" as="geometry" />
        </mxCell>
        <mxCell id="44lf9Ctf_OpmYabO1S7V-39" value="encoder" style="rounded=1;whiteSpace=wrap;html=1;" parent="1" vertex="1">
          <mxGeometry x="570" y="200" width="100" height="40" as="geometry" />
        </mxCell>
        <mxCell id="44lf9Ctf_OpmYabO1S7V-42" value="" style="endArrow=classic;startArrow=classic;html=1;rounded=1;" parent="1" edge="1">
          <mxGeometry width="50" height="50" relative="1" as="geometry">
            <mxPoint x="430" y="510" as="sourcePoint" />
            <mxPoint x="620" y="510" as="targetPoint" />
          </mxGeometry>
        </mxCell>
        <mxCell id="44lf9Ctf_OpmYabO1S7V-43" value="LOSS计算" style="edgeLabel;html=1;align=center;verticalAlign=middle;resizable=0;points=[];rounded=1;" parent="44lf9Ctf_OpmYabO1S7V-42" vertex="1" connectable="0">
          <mxGeometry x="-0.0495" y="-4" relative="1" as="geometry">
            <mxPoint as="offset" />
          </mxGeometry>
        </mxCell>
        <mxCell id="44lf9Ctf_OpmYabO1S7V-188" value="" style="shape=image;verticalLabelPosition=bottom;verticalAlign=top;imageAspect=0;aspect=fixed;image=data:image/svg+xml,PHN2ZyB4bWxuczp4bGluaz0iaHR0cDovL3d3dy53My5vcmcvMTk5OS94bGluayIgeG1sbnM9Imh0dHA6Ly93d3cudzMub3JnLzIwMDAvc3ZnIiBoZWlnaHQ9IjIwMCIgd2lkdGg9IjIwMCIgdmVyc2lvbj0iMS4xIiB2aWV3Qm94PSIwIDAgMTAyNCAxMDI0IiBjbGFzcz0iaWNvbiI+PHBhdGggZmlsbD0iIzUxNTE1MSIgY2xhc3M9IiIgZGF0YS1zcG0tYW5jaG9yLWlkPSJhMzEzeC5zZWFyY2hfaW5kZXguMC5pNS42NGYzM2E4MWRtNXMzeCIgZD0iTTM4NS4xNTA4NDkgMzg1LjY2MjMzOGwtMTI4Ljg5NTEwNSAwIDAtMTUwLjM3NzYyMnEwLTQ5LjEwMjg5NyAxOS40MzY1NjMtOTEuNTU2NDQ0dDUzLjcwNjI5NC03NC42NzczMjMgODAuODE1MTg1LTUwLjYzNzM2MyAxMDEuNzg2MjE0LTE4LjQxMzU4NnE0OS4xMDI4OTcgMCA5NC42MjUzNzUgMTguNDEzNTg2dDgwLjgxNTE4NSA1MC42MzczNjMgNTYuMjYzNzM2IDc0LjY3NzMyMyAyMC45NzEwMjkgOTEuNTU2NDQ0bDAgMTUwLjM3NzYyMi0xMjMuNzgwMjIgMCAwLTEyMS43MzQyNjZxMC02NC40NDc1NTItMzUuODA0MTk2LTk5Ljc0MDI2dC05Ny4xODI4MTctMzUuMjkyNzA3cS01NS4yNDA3NTkgMC04OC45OTkwMDEgMzUuMjkyNzA3dC0zMy43NTgyNDIgOTkuNzQwMjZsMCAxMjEuNzM0MjY2ek04MjYuMDUzOTQ2IDQ0Ny4wNDA5NTlxMjcuNjIwMzggMCA0Ny41Njg0MzIgMTkuOTQ4MDUydDE5Ljk0ODA1MiA0Ny41Njg0MzJsMCAzMTcuMTIyODc3cTAgMjcuNjIwMzgtOS43MTgyODIgNTEuNjYwMzR0LTI2LjU5NzQwMyA0MS45NDIwNTgtMzkuODk2MTA0IDI4LjEzMTg2OC01MC42MzczNjMgMTAuMjI5NzdsLTUxNi42MDMzOTcgMHEtMjcuNjIwMzggMC01MC4xMjU4NzQtMTAuMjI5Nzd0LTM4LjM2MTYzOC0yNy4xMDg4OTEtMjQuNTUxNDQ5LTM5LjM4NDYxNS04LjY5NTMwNS00OC4wNzk5MmwwLTMyNC4yODM3MTZxMC0yNy42MjAzOCAxOS40MzY1NjMtNDcuNTY4NDMydDQ3LjA1Njk0My0xOS45NDgwNTJsNjEuMzc4NjIxIDAgMTI4Ljg5NTEwNSAwIDI1NS43NDQyNTYgMCAxMjMuNzgwMjIgMCA2MS4zNzg2MjEgMHoiLz48L3N2Zz4=;rounded=1;" parent="1" vertex="1">
          <mxGeometry x="280" y="230" width="10" height="10" as="geometry" />
        </mxCell>
        <mxCell id="44lf9Ctf_OpmYabO1S7V-189" value="" style="shape=image;verticalLabelPosition=bottom;verticalAlign=top;imageAspect=0;aspect=fixed;image=data:image/svg+xml,PHN2ZyB4bWxuczp4bGluaz0iaHR0cDovL3d3dy53My5vcmcvMTk5OS94bGluayIgeG1sbnM9Imh0dHA6Ly93d3cudzMub3JnLzIwMDAvc3ZnIiBoZWlnaHQ9IjIwMCIgd2lkdGg9IjIwMCIgdmVyc2lvbj0iMS4xIiB2aWV3Qm94PSIwIDAgMTAyNCAxMDI0IiBjbGFzcz0iaWNvbiI+PHBhdGggZmlsbD0iIzUxNTE1MSIgY2xhc3M9IiIgZGF0YS1zcG0tYW5jaG9yLWlkPSJhMzEzeC5zZWFyY2hfaW5kZXguMC5pNS42NGYzM2E4MWRtNXMzeCIgZD0iTTM4NS4xNTA4NDkgMzg1LjY2MjMzOGwtMTI4Ljg5NTEwNSAwIDAtMTUwLjM3NzYyMnEwLTQ5LjEwMjg5NyAxOS40MzY1NjMtOTEuNTU2NDQ0dDUzLjcwNjI5NC03NC42NzczMjMgODAuODE1MTg1LTUwLjYzNzM2MyAxMDEuNzg2MjE0LTE4LjQxMzU4NnE0OS4xMDI4OTcgMCA5NC42MjUzNzUgMTguNDEzNTg2dDgwLjgxNTE4NSA1MC42MzczNjMgNTYuMjYzNzM2IDc0LjY3NzMyMyAyMC45NzEwMjkgOTEuNTU2NDQ0bDAgMTUwLjM3NzYyMi0xMjMuNzgwMjIgMCAwLTEyMS43MzQyNjZxMC02NC40NDc1NTItMzUuODA0MTk2LTk5Ljc0MDI2dC05Ny4xODI4MTctMzUuMjkyNzA3cS01NS4yNDA3NTkgMC04OC45OTkwMDEgMzUuMjkyNzA3dC0zMy43NTgyNDIgOTkuNzQwMjZsMCAxMjEuNzM0MjY2ek04MjYuMDUzOTQ2IDQ0Ny4wNDA5NTlxMjcuNjIwMzggMCA0Ny41Njg0MzIgMTkuOTQ4MDUydDE5Ljk0ODA1MiA0Ny41Njg0MzJsMCAzMTcuMTIyODc3cTAgMjcuNjIwMzgtOS43MTgyODIgNTEuNjYwMzR0LTI2LjU5NzQwMyA0MS45NDIwNTgtMzkuODk2MTA0IDI4LjEzMTg2OC01MC42MzczNjMgMTAuMjI5NzdsLTUxNi42MDMzOTcgMHEtMjcuNjIwMzggMC01MC4xMjU4NzQtMTAuMjI5Nzd0LTM4LjM2MTYzOC0yNy4xMDg4OTEtMjQuNTUxNDQ5LTM5LjM4NDYxNS04LjY5NTMwNS00OC4wNzk5MmwwLTMyNC4yODM3MTZxMC0yNy42MjAzOCAxOS40MzY1NjMtNDcuNTY4NDMydDQ3LjA1Njk0My0xOS45NDgwNTJsNjEuMzc4NjIxIDAgMTI4Ljg5NTEwNSAwIDI1NS43NDQyNTYgMCAxMjMuNzgwMjIgMCA2MS4zNzg2MjEgMHoiLz48L3N2Zz4=;rounded=1;" parent="1" vertex="1">
          <mxGeometry x="660" y="230" width="10" height="10" as="geometry" />
        </mxCell>
        <mxCell id="44lf9Ctf_OpmYabO1S7V-190" value="" style="shape=image;verticalLabelPosition=bottom;verticalAlign=top;imageAspect=0;aspect=fixed;image=data:image/svg+xml,PHN2ZyB4bWxuczp4bGluaz0iaHR0cDovL3d3dy53My5vcmcvMTk5OS94bGluayIgeG1sbnM9Imh0dHA6Ly93d3cudzMub3JnLzIwMDAvc3ZnIiBoZWlnaHQ9IjIwMCIgd2lkdGg9IjIwMCIgdmVyc2lvbj0iMS4xIiB2aWV3Qm94PSIwIDAgMTAyNCAxMDI0IiBjbGFzcz0iaWNvbiI+PHBhdGggZmlsbD0iIzUxNTE1MSIgY2xhc3M9IiIgZGF0YS1zcG0tYW5jaG9yLWlkPSJhMzEzeC5zZWFyY2hfaW5kZXguMC5pNS42NGYzM2E4MWRtNXMzeCIgZD0iTTM4NS4xNTA4NDkgMzg1LjY2MjMzOGwtMTI4Ljg5NTEwNSAwIDAtMTUwLjM3NzYyMnEwLTQ5LjEwMjg5NyAxOS40MzY1NjMtOTEuNTU2NDQ0dDUzLjcwNjI5NC03NC42NzczMjMgODAuODE1MTg1LTUwLjYzNzM2MyAxMDEuNzg2MjE0LTE4LjQxMzU4NnE0OS4xMDI4OTcgMCA5NC42MjUzNzUgMTguNDEzNTg2dDgwLjgxNTE4NSA1MC42MzczNjMgNTYuMjYzNzM2IDc0LjY3NzMyMyAyMC45NzEwMjkgOTEuNTU2NDQ0bDAgMTUwLjM3NzYyMi0xMjMuNzgwMjIgMCAwLTEyMS43MzQyNjZxMC02NC40NDc1NTItMzUuODA0MTk2LTk5Ljc0MDI2dC05Ny4xODI4MTctMzUuMjkyNzA3cS01NS4yNDA3NTkgMC04OC45OTkwMDEgMzUuMjkyNzA3dC0zMy43NTgyNDIgOTkuNzQwMjZsMCAxMjEuNzM0MjY2ek04MjYuMDUzOTQ2IDQ0Ny4wNDA5NTlxMjcuNjIwMzggMCA0Ny41Njg0MzIgMTkuOTQ4MDUydDE5Ljk0ODA1MiA0Ny41Njg0MzJsMCAzMTcuMTIyODc3cTAgMjcuNjIwMzgtOS43MTgyODIgNTEuNjYwMzR0LTI2LjU5NzQwMyA0MS45NDIwNTgtMzkuODk2MTA0IDI4LjEzMTg2OC01MC42MzczNjMgMTAuMjI5NzdsLTUxNi42MDMzOTcgMHEtMjcuNjIwMzggMC01MC4xMjU4NzQtMTAuMjI5Nzd0LTM4LjM2MTYzOC0yNy4xMDg4OTEtMjQuNTUxNDQ5LTM5LjM4NDYxNS04LjY5NTMwNS00OC4wNzk5MmwwLTMyNC4yODM3MTZxMC0yNy42MjAzOCAxOS40MzY1NjMtNDcuNTY4NDMydDQ3LjA1Njk0My0xOS45NDgwNTJsNjEuMzc4NjIxIDAgMTI4Ljg5NTEwNSAwIDI1NS43NDQyNTYgMCAxMjMuNzgwMjIgMCA2MS4zNzg2MjEgMHoiLz48L3N2Zz4=;rounded=1;" parent="1" vertex="1">
          <mxGeometry x="470" y="230" width="10" height="10" as="geometry" />
        </mxCell>
        <mxCell id="_JJHLia3ytI7-iAy2crc-1" value="adapter&lt;br&gt;μ" style="rounded=1;whiteSpace=wrap;html=1;" parent="1" vertex="1">
          <mxGeometry x="190" y="275" width="40" height="50" as="geometry" />
        </mxCell>
        <mxCell id="_JJHLia3ytI7-iAy2crc-3" style="edgeStyle=orthogonalEdgeStyle;rounded=0;orthogonalLoop=1;jettySize=auto;html=1;entryX=0.472;entryY=0.015;entryDx=0;entryDy=0;entryPerimeter=0;" parent="1" source="44lf9Ctf_OpmYabO1S7V-22" target="_JJHLia3ytI7-iAy2crc-1" edge="1">
          <mxGeometry relative="1" as="geometry" />
        </mxCell>
        <mxCell id="4q2mG31T0m9fb-TbLb3d-21" style="edgeStyle=orthogonalEdgeStyle;rounded=0;orthogonalLoop=1;jettySize=auto;html=1;" parent="1" edge="1">
          <mxGeometry relative="1" as="geometry">
            <mxPoint x="340" y="150" as="targetPoint" />
            <mxPoint x="340" y="90" as="sourcePoint" />
          </mxGeometry>
        </mxCell>
        <mxCell id="gdt7SkdUQFjCtIXbfqG7-1" value="prompt" style="rounded=1;whiteSpace=wrap;html=1;" parent="1" vertex="1">
          <mxGeometry x="254" y="139" width="70" height="20" as="geometry" />
        </mxCell>
        <mxCell id="gdt7SkdUQFjCtIXbfqG7-7" value="" style="rounded=1;whiteSpace=wrap;html=1;fillColor=#d5e8d4;strokeColor=#82b366;" parent="1" vertex="1">
          <mxGeometry x="70" y="60" width="110" height="120" as="geometry" />
        </mxCell>
        <mxCell id="gdt7SkdUQFjCtIXbfqG7-8" value="Router" style="rounded=0;whiteSpace=wrap;html=1;" parent="1" vertex="1">
          <mxGeometry x="92.5" y="74" width="65" height="26" as="geometry" />
        </mxCell>
        <mxCell id="gdt7SkdUQFjCtIXbfqG7-10" value="" style="rounded=0;whiteSpace=wrap;html=1;" parent="1" vertex="1">
          <mxGeometry x="87" y="119" width="20" height="40" as="geometry" />
        </mxCell>
        <mxCell id="gdt7SkdUQFjCtIXbfqG7-12" value="" style="rounded=0;whiteSpace=wrap;html=1;" parent="1" vertex="1">
          <mxGeometry x="107" y="119" width="20" height="40" as="geometry" />
        </mxCell>
        <mxCell id="gdt7SkdUQFjCtIXbfqG7-13" value="" style="rounded=0;whiteSpace=wrap;html=1;" parent="1" vertex="1">
          <mxGeometry x="127" y="119" width="20" height="40" as="geometry" />
        </mxCell>
        <mxCell id="gdt7SkdUQFjCtIXbfqG7-14" value="" style="rounded=0;whiteSpace=wrap;html=1;" parent="1" vertex="1">
          <mxGeometry x="147" y="119" width="20" height="40" as="geometry" />
        </mxCell>
        <mxCell id="gdt7SkdUQFjCtIXbfqG7-15" style="edgeStyle=orthogonalEdgeStyle;rounded=0;orthogonalLoop=1;jettySize=auto;html=1;entryX=0.49;entryY=0.045;entryDx=0;entryDy=0;entryPerimeter=0;" parent="1" source="gdt7SkdUQFjCtIXbfqG7-8" target="gdt7SkdUQFjCtIXbfqG7-14" edge="1">
          <mxGeometry relative="1" as="geometry">
            <Array as="points">
              <mxPoint x="125" y="110" />
              <mxPoint x="157" y="110" />
            </Array>
          </mxGeometry>
        </mxCell>
        <mxCell id="gdt7SkdUQFjCtIXbfqG7-16" value="" style="endArrow=classic;html=1;rounded=0;entryX=0.455;entryY=0.083;entryDx=0;entryDy=0;entryPerimeter=0;" parent="1" edge="1">
          <mxGeometry width="50" height="50" relative="1" as="geometry">
            <mxPoint x="124" y="42" as="sourcePoint" />
            <mxPoint x="124.04999999999995" y="71.96000000000004" as="targetPoint" />
          </mxGeometry>
        </mxCell>
        <mxCell id="0alV29lTGNbaxyIDkg0L-1" value="" style="endArrow=none;html=1;rounded=0;" parent="1" edge="1">
          <mxGeometry width="50" height="50" relative="1" as="geometry">
            <mxPoint x="190" y="70" as="sourcePoint" />
            <mxPoint x="250" y="120" as="targetPoint" />
          </mxGeometry>
        </mxCell>
        <mxCell id="0alV29lTGNbaxyIDkg0L-2" value="" style="endArrow=none;html=1;rounded=0;" parent="1" edge="1">
          <mxGeometry width="50" height="50" relative="1" as="geometry">
            <mxPoint x="190" y="180" as="sourcePoint" />
            <mxPoint x="250" y="140" as="targetPoint" />
          </mxGeometry>
        </mxCell>
        <mxCell id="6FsC9lmS7Tpji9I-YwJu-1" value="adapter&lt;br&gt;sigma" style="rounded=1;whiteSpace=wrap;html=1;" parent="1" vertex="1">
          <mxGeometry x="249" y="275" width="40" height="50" as="geometry" />
        </mxCell>
        <mxCell id="6FsC9lmS7Tpji9I-YwJu-2" value="" style="endArrow=classic;html=1;rounded=0;entryX=0.575;entryY=0;entryDx=0;entryDy=0;entryPerimeter=0;exitX=0.502;exitY=0.999;exitDx=0;exitDy=0;exitPerimeter=0;" parent="1" source="44lf9Ctf_OpmYabO1S7V-22" target="6FsC9lmS7Tpji9I-YwJu-1" edge="1">
          <mxGeometry width="50" height="50" relative="1" as="geometry">
            <mxPoint x="90" y="310" as="sourcePoint" />
            <mxPoint x="140" y="260" as="targetPoint" />
            <Array as="points">
              <mxPoint x="240" y="260" />
              <mxPoint x="272" y="260" />
            </Array>
          </mxGeometry>
        </mxCell>
        <mxCell id="6FsC9lmS7Tpji9I-YwJu-3" style="edgeStyle=orthogonalEdgeStyle;rounded=0;orthogonalLoop=1;jettySize=auto;html=1;entryX=0.476;entryY=0.049;entryDx=0;entryDy=0;entryPerimeter=0;" parent="1" source="_JJHLia3ytI7-iAy2crc-1" target="44lf9Ctf_OpmYabO1S7V-12" edge="1">
          <mxGeometry relative="1" as="geometry" />
        </mxCell>
        <mxCell id="6FsC9lmS7Tpji9I-YwJu-4" style="edgeStyle=orthogonalEdgeStyle;rounded=0;orthogonalLoop=1;jettySize=auto;html=1;entryX=0.526;entryY=0.022;entryDx=0;entryDy=0;entryPerimeter=0;" parent="1" source="6FsC9lmS7Tpji9I-YwJu-1" target="44lf9Ctf_OpmYabO1S7V-13" edge="1">
          <mxGeometry relative="1" as="geometry" />
        </mxCell>
        <mxCell id="h8Wu63Ed9a8Dmx2-KNw3-1" value="concat" style="text;html=1;strokeColor=none;fillColor=none;align=center;verticalAlign=middle;whiteSpace=wrap;rounded=0;" parent="1" vertex="1">
          <mxGeometry x="210" y="389" width="60" height="30" as="geometry" />
        </mxCell>
        <mxCell id="h8Wu63Ed9a8Dmx2-KNw3-3" value="non_linear" style="rounded=1;whiteSpace=wrap;html=1;" parent="1" vertex="1">
          <mxGeometry x="387.5" y="290" width="82.5" height="30" as="geometry" />
        </mxCell>
        <mxCell id="_CjitRxQ-0OuM7Ou_vrn-1" style="edgeStyle=orthogonalEdgeStyle;rounded=0;orthogonalLoop=1;jettySize=auto;html=1;entryX=0.059;entryY=0.333;entryDx=0;entryDy=0;entryPerimeter=0;" edge="1" parent="1" source="44lf9Ctf_OpmYabO1S7V-15" target="44lf9Ctf_OpmYabO1S7V-18">
          <mxGeometry relative="1" as="geometry">
            <Array as="points">
              <mxPoint x="330" y="441" />
              <mxPoint x="330" y="270" />
            </Array>
          </mxGeometry>
        </mxCell>
        <mxCell id="_CjitRxQ-0OuM7Ou_vrn-2" value="" style="endArrow=classic;html=1;rounded=0;entryX=1;entryY=0.067;entryDx=0;entryDy=0;entryPerimeter=0;exitX=0.487;exitY=1.083;exitDx=0;exitDy=0;exitPerimeter=0;" edge="1" parent="1" source="44lf9Ctf_OpmYabO1S7V-23" target="44lf9Ctf_OpmYabO1S7V-18">
          <mxGeometry width="50" height="50" relative="1" as="geometry">
            <mxPoint x="340" y="220" as="sourcePoint" />
            <mxPoint x="390" y="170" as="targetPoint" />
          </mxGeometry>
        </mxCell>
      </root>
    </mxGraphModel>
  </diagram>
</mxfile>
